<?xml version="1.0" encoding="utf-8"?>
<!-- Generator: Adobe Illustrator 26.4.1, SVG Export Plug-In . SVG Version: 6.00 Build 0)  -->
<svg version="1.1" id="Layer_1" xmlns="http://www.w3.org/2000/svg" xmlns:xlink="http://www.w3.org/1999/xlink" x="0px" y="0px"
	 viewBox="0 0 90 23" enable-background="new 0 0 90 23" xml:space="preserve">
<g>
	<path d="M10.656,7.086c0.479,0,0.922,0.078,1.331,0.232c0.408,0.155,0.739,0.366,0.993,0.634c0.239,0.239,0.437,0.581,0.591,1.024
		c0.155,0.443,0.232,0.982,0.232,1.616v5.809c0,0.197-0.024,0.437-0.074,0.718c-0.05,0.282-0.173,0.521-0.37,0.719
		c-0.197,0.197-0.437,0.32-0.718,0.369c-0.282,0.05-0.557,0.074-0.824,0.074H6.474c-0.31,0-0.644-0.021-1.003-0.063
		c-0.359-0.042-0.701-0.204-1.024-0.485c-0.226-0.197-0.405-0.426-0.539-0.687c-0.134-0.261-0.232-0.531-0.296-0.813
		c-0.063-0.281-0.103-0.557-0.116-0.824c-0.014-0.267-0.021-0.507-0.021-0.718c0-0.493,0.053-0.979,0.158-1.458
		c0.105-0.479,0.37-0.901,0.792-1.267c0.352-0.31,0.708-0.497,1.067-0.56c0.359-0.063,0.687-0.095,0.982-0.095h4.858v-0.782
		c0-0.169-0.018-0.345-0.053-0.528c-0.036-0.183-0.124-0.359-0.264-0.528c-0.169-0.211-0.363-0.345-0.581-0.401
		c-0.218-0.056-0.426-0.084-0.623-0.084H4.298V7.086H10.656z M7.213,13.212c-0.085,0-0.222,0.018-0.412,0.053
		s-0.356,0.145-0.497,0.328c-0.042,0.056-0.099,0.169-0.169,0.338C6.065,14.1,6.03,14.388,6.03,14.796
		c0,0.169,0.018,0.38,0.053,0.634s0.13,0.458,0.285,0.612c0.084,0.085,0.201,0.162,0.349,0.232c0.148,0.071,0.299,0.105,0.454,0.105
		h3.443c0.07,0,0.159-0.003,0.264-0.01c0.105-0.008,0.201-0.046,0.285-0.116s0.134-0.145,0.148-0.223
		c0.014-0.077,0.021-0.158,0.021-0.242v-2.577H7.213z"/>
	<path d="M22.674,18.281l-2.83-4.141l-2.81,4.141h-2.894l4.288-5.745l-4.013-5.45h2.81l2.619,3.844l2.619-3.844h2.809l-3.992,5.45
		l4.288,5.745H22.674z"/>
	<path d="M32.792,7.086c0.479,0,0.922,0.078,1.331,0.232c0.408,0.155,0.739,0.366,0.993,0.634c0.239,0.239,0.437,0.581,0.591,1.024
		c0.155,0.443,0.232,0.982,0.232,1.616v5.809c0,0.197-0.024,0.437-0.074,0.718c-0.05,0.282-0.173,0.521-0.37,0.719
		c-0.197,0.197-0.437,0.32-0.718,0.369c-0.282,0.05-0.557,0.074-0.824,0.074H28.61c-0.31,0-0.644-0.021-1.003-0.063
		c-0.359-0.042-0.701-0.204-1.024-0.485c-0.226-0.197-0.405-0.426-0.539-0.687c-0.134-0.261-0.232-0.531-0.296-0.813
		c-0.063-0.281-0.103-0.557-0.116-0.824c-0.014-0.267-0.021-0.507-0.021-0.718c0-0.493,0.053-0.979,0.158-1.458
		c0.105-0.479,0.37-0.901,0.792-1.267c0.352-0.31,0.708-0.497,1.067-0.56c0.359-0.063,0.687-0.095,0.982-0.095h4.858v-0.782
		c0-0.169-0.018-0.345-0.053-0.528c-0.036-0.183-0.124-0.359-0.264-0.528c-0.169-0.211-0.363-0.345-0.581-0.401
		c-0.218-0.056-0.426-0.084-0.623-0.084h-5.513V7.086H32.792z M29.35,13.212c-0.085,0-0.222,0.018-0.412,0.053
		s-0.356,0.145-0.497,0.328c-0.042,0.056-0.099,0.169-0.169,0.338c-0.07,0.169-0.105,0.458-0.105,0.866
		c0,0.169,0.018,0.38,0.053,0.634s0.13,0.458,0.285,0.612c0.084,0.085,0.201,0.162,0.349,0.232c0.148,0.071,0.299,0.105,0.454,0.105
		h3.443c0.07,0,0.159-0.003,0.264-0.01c0.105-0.008,0.201-0.046,0.285-0.116s0.134-0.145,0.148-0.223
		c0.014-0.077,0.021-0.158,0.021-0.242v-2.577H29.35z"/>
	<path d="M41.685,18.281c-0.211,0-0.458-0.014-0.739-0.042s-0.57-0.092-0.866-0.19c-0.295-0.099-0.595-0.239-0.897-0.423
		c-0.303-0.183-0.581-0.422-0.834-0.718c-0.465-0.549-0.75-1.165-0.855-1.848c-0.105-0.684-0.158-1.426-0.158-2.229
		c0-0.338,0.007-0.704,0.021-1.098c0.014-0.394,0.063-0.792,0.148-1.193s0.211-0.795,0.38-1.183
		c0.169-0.387,0.409-0.743,0.718-1.066c0.113-0.113,0.261-0.239,0.444-0.38c0.183-0.141,0.412-0.271,0.687-0.391
		c0.274-0.12,0.598-0.222,0.971-0.307c0.373-0.084,0.813-0.126,1.32-0.126h4.795v1.901h-3.992c-0.831,0-1.461,0.176-1.891,0.528
		s-0.715,0.768-0.855,1.246c-0.042,0.155-0.077,0.334-0.105,0.539s-0.046,0.409-0.053,0.613c-0.007,0.204-0.014,0.394-0.021,0.57
		c-0.007,0.176-0.011,0.306-0.011,0.391c0,0.169,0.003,0.355,0.011,0.56c0.007,0.205,0.024,0.412,0.053,0.623
		c0.028,0.211,0.066,0.419,0.116,0.623c0.049,0.204,0.109,0.377,0.179,0.518c0.141,0.268,0.317,0.479,0.528,0.634
		c0.211,0.155,0.443,0.274,0.697,0.359c0.254,0.084,0.518,0.137,0.792,0.158c0.274,0.021,0.539,0.031,0.792,0.031h4.013v1.901
		H41.685z"/>
	<path d="M48.464,11.311c0-0.62,0.074-1.215,0.222-1.785c0.147-0.57,0.461-1.059,0.94-1.468c0.253-0.225,0.531-0.405,0.834-0.539
		s0.605-0.232,0.908-0.296s0.595-0.102,0.877-0.116c0.281-0.014,0.528-0.021,0.739-0.021h1.668v1.901h-1.035
		c-0.324,0-0.683,0.042-1.077,0.127s-0.739,0.303-1.035,0.655c-0.24,0.282-0.395,0.612-0.465,0.993
		c-0.071,0.38-0.105,0.781-0.105,1.204v6.315h-2.472V11.311z"/>
	<path d="M61.961,7.086c0.479,0,0.924,0.078,1.332,0.232s0.738,0.366,0.992,0.634c0.24,0.239,0.436,0.581,0.592,1.024
		c0.154,0.443,0.232,0.982,0.232,1.616v5.809c0,0.197-0.025,0.437-0.074,0.718c-0.049,0.282-0.172,0.521-0.369,0.719
		s-0.438,0.32-0.719,0.369c-0.281,0.05-0.557,0.074-0.824,0.074h-5.344c-0.31,0-0.644-0.021-1.003-0.063
		c-0.359-0.042-0.701-0.204-1.024-0.485c-0.226-0.197-0.405-0.426-0.539-0.687c-0.134-0.261-0.232-0.531-0.296-0.813
		c-0.063-0.281-0.103-0.557-0.116-0.824c-0.014-0.267-0.021-0.507-0.021-0.718c0-0.493,0.053-0.979,0.158-1.458
		c0.105-0.479,0.37-0.901,0.792-1.267c0.352-0.31,0.708-0.497,1.067-0.56c0.359-0.063,0.687-0.095,0.982-0.095h4.857v-0.782
		c0-0.169-0.018-0.345-0.053-0.528s-0.123-0.359-0.264-0.528c-0.168-0.211-0.361-0.345-0.58-0.401
		c-0.219-0.056-0.426-0.084-0.623-0.084h-5.513V7.086H61.961z M58.519,13.212c-0.085,0-0.222,0.018-0.412,0.053
		s-0.356,0.145-0.497,0.328c-0.042,0.056-0.099,0.169-0.169,0.338c-0.07,0.169-0.105,0.458-0.105,0.866
		c0,0.169,0.018,0.38,0.053,0.634s0.13,0.458,0.285,0.612c0.084,0.085,0.201,0.162,0.349,0.232c0.148,0.071,0.299,0.105,0.454,0.105
		h3.443c0.07,0,0.158-0.003,0.264-0.01c0.105-0.008,0.201-0.046,0.285-0.116s0.133-0.145,0.148-0.223
		c0.014-0.077,0.02-0.158,0.02-0.242v-2.577H58.519z"/>
	<path d="M67.687,18.281V9.008h-1.563V7.107h1.563c0-0.183,0.018-0.397,0.053-0.644c0.035-0.246,0.095-0.5,0.18-0.761
		c0.084-0.26,0.2-0.514,0.348-0.76c0.148-0.246,0.342-0.468,0.581-0.665c0.268-0.211,0.584-0.384,0.951-0.518
		c0.365-0.134,0.749-0.232,1.15-0.296s0.8-0.102,1.193-0.116c0.395-0.014,0.754-0.014,1.077,0v1.816
		c-0.633,0-1.14,0.018-1.521,0.053c-0.38,0.035-0.683,0.13-0.908,0.285c-0.155,0.113-0.303,0.292-0.443,0.539
		s-0.204,0.595-0.19,1.045h3.062v1.922h-3.062v9.273H67.687z"/>
	<path d="M79.261,18.281c-0.761,0-1.362-0.066-1.807-0.2c-0.443-0.134-0.841-0.342-1.193-0.624
		c-0.366-0.295-0.644-0.661-0.834-1.098s-0.285-1.014-0.285-1.732v-5.64H73.6V7.086h1.542V3.496h2.472v3.591h3.126v1.901h-3.126
		v4.499c0,0.197,0,0.409,0,0.634c0,0.211,0.017,0.423,0.053,0.634c0.034,0.211,0.098,0.419,0.189,0.623s0.229,0.377,0.412,0.518
		c0.281,0.239,0.616,0.38,1.003,0.422c0.388,0.043,0.694,0.063,0.919,0.063h0.613v1.901H79.261z"/>
</g>
</svg>
