<svg width="200" height="70" viewBox="0 0 200 70" fill="none" xmlns="http://www.w3.org/2000/svg">
  <path d="M35 0C15.67 0 0 15.67 0 35s15.67 35 35 35 35-15.67 35-35S54.33 0 35 0zm0 52.5c-9.665 0-17.5-7.835-17.5-17.5S25.335 17.5 35 17.5 52.5 25.335 52.5 35 44.665 52.5 35 52.5z" fill="#875A7B"/>
  <path d="M90.8 47V23h8.4c7.84 0 11.76 4.48 11.76 12s-3.92 12-11.76 12h-8.4zm4.8-4h3.44c4.96 0 7.12-2.88 7.12-8s-2.16-8-7.12-8h-3.44V43zm35.929-12.4h4.48v12.96c-2.24 1.12-4.96 1.76-7.52 1.76-6.72 0-11.52-4.48-11.52-11.68 0-7.04 4.8-11.68 11.52-11.68 2.56 0 5.28.64 7.52 1.76l-1.76 3.84c-1.76-.8-3.68-1.28-5.44-1.28-4.32 0-7.04 2.88-7.04 7.36 0 4.64 2.72 7.36 7.04 7.36 1.44 0 2.88-.32 4.16-.96v-5.28h-1.44v-4.16zm28.863 16.4h-4.8V23h4.8v24zm22.883-24h4.8v24h-4.16l-12.16-16.96V47h-4.8V23h4.16l12.16 16.96V23z" fill="#875A7B"/>
</svg>
