<svg width="200" height="70" viewBox="0 0 200 70" fill="none" xmlns="http://www.w3.org/2000/svg">
  <path d="M20 15h30c8.284 0 15 6.716 15 15 0 8.284-6.716 15-15 15H35l15 15H40L25 45H20v15h-5V15zm5 25h25c5.523 0 10-4.477 10-10s-4.477-10-10-10H25v20z" fill="#2563EB"/>
  <path d="M85 15h25c8.284 0 15 6.716 15 15s-6.716 15-15 15H90v10h-5V15zm5 25h20c5.523 0 10-4.477 10-10s-4.477-10-10-10H90v20zm55-25h30v5h-25v15h20v5h-20v20h-5V15zm45 0h5l25 40h-6l-6.25-10h-25L175 55h-6l21-40zm21.25 25L200 20.5 188.75 40h22.5z" fill="#2563EB"/>
</svg>
